<svg xmlns="http://www.w3.org/2000/svg" xml:space="preserve" width="47.7092mm" height="20.8387mm" version="1.1" style="shape-rendering:geometricPrecision; text-rendering:geometricPrecision; image-rendering:optimizeQuality; fill-rule:evenodd; clip-rule:evenodd"
viewBox="0 0 4353.82 1901.69"
 xmlns:xlink="http://www.w3.org/1999/xlink"
 xmlns:xodm="http://www.corel.com/coreldraw/odm/2003">
 <defs>
  <style type="text/css">
   <![CDATA[
    .fil0 {fill:black}
    .fil1 {fill:black;fill-rule:nonzero}
   ]]>
  </style>
 </defs>
 <g id="Camada_x0020_1">
  <metadata id="CorelCorpID_0Corel-Layer"/>
  <path class="fil0" d="M629.4 1383.34c32.94,15.61 71.36,30.77 101.56,50.01 63.03,40.16 122.8,92.43 135.75,170.94 8.9,53.84 -6.57,84.8 -35,109.93 -55.06,48.69 -153.88,19.41 -196.31,-62.06 -21.63,-41.52 -24.13,-79.57 -19.42,-132.8 2.2,-24.79 6.73,-119.15 13.41,-136.03zm-237.36 -6.05c16.93,1.32 3.59,-24.37 20.21,-39.38l13.09 -8.8c10.62,-10.23 7.41,-4 14.08,-9.95 6.86,-6.11 7.21,-14.08 16.56,-20.29 6.15,15.08 1.12,66.34 3.2,75.02 1.83,7.69 -1.46,1.33 3.29,6.38 -7.23,37.3 -29.11,81.37 -45.66,113.44 -11.4,22.11 -40.78,91.27 -42.85,116.33 12.11,5.98 22.41,12.06 33.15,19.79l54.94 -126.36c82.26,-161.22 25.43,-192.86 56.47,-305 6.31,-22.82 14.08,-46.97 20.82,-69.63 5.03,-16.92 10.85,-61.28 20.75,-69.68 9.5,5.3 7,13.3 13.2,35.98 3.74,13.7 6.84,25.18 10.53,38.95 47.01,175.69 7.37,233.56 -49.1,398.18 -16.13,47.02 -19.53,118.07 -23.5,170.84 16.55,6.67 29.73,17.22 44.01,21.75 0.38,-16.65 5.56,-126.48 15.98,-144.39 9.01,93.06 48.48,137.86 105.07,173.36 31.42,19.71 63.5,33.77 107.98,27.44 19.32,-2.76 34.54,-9.4 50.36,-17.82 32.98,-17.58 29.7,-22.9 42.43,-28.72l0.87 69.79 45.67 -0.09 -1.35 -69.28c15.49,4.65 36.27,38.8 95.94,49.01 51.09,8.73 121,-28.37 151.1,-61.15 42.41,-46.18 58.05,-83.62 60.78,-153.82 0.78,16.72 10.87,51.21 13.1,75.26 2.58,27.72 5.36,53.62 6.93,82.59l43.78 -24.18c0.99,-33.24 -19.78,-140.3 -29.91,-169.74 -41.88,-121.58 -79.94,-178.55 -64.16,-321.32 1.31,-11.93 26.62,-150.09 39.55,-163.66 11.18,48.17 32.93,93.4 46.31,142.98 22.06,81.79 3.15,78.13 12.82,174.6 6.54,65.35 24.39,89.46 47.66,140.26 10.13,22.11 18.34,43.23 27.8,65.21 8.31,19.36 17.87,50.4 27.3,66.43 7.97,-8.72 21.26,-19.31 31.68,-28.44 -4.34,-17.94 -50.29,-127.6 -61.23,-150.95 -22.29,-47.55 -41.2,-115.87 -30.07,-178.82 8.26,9.37 16.48,21.92 23.95,28.97 6.61,6.22 26.14,16.82 30.46,21.61 14.69,16.29 48.16,233.72 62.76,255.15 6.02,-6.32 9.75,-13.59 15.81,-19.95 6.13,-6.45 10.95,-8.26 17.46,-15.78 -9.51,-59.34 -54,-148.72 -24,-220.6 6.32,-15.14 20.46,-47.52 29.09,-58.79 33.6,33.65 17.94,210.53 35.62,237.05 5.95,-5.68 6.61,-12.46 21.4,-29.38 8.18,-9.34 16.54,-16.98 16.16,-32.28 -2.37,-97.96 -11.22,-160.97 -54.84,-245.99 -18.74,-36.51 -8.96,-136.66 -16.42,-186.17 -4.6,-30.51 -12.22,-54.09 -20.25,-81.4 -9.74,-33.15 -4.11,-57.31 -5.35,-92.09 -9.49,-268.02 -203.43,-247.89 -367,-338.13 -21.29,-11.74 -44.2,-24.66 -62.43,-36.01 -0.75,-15.62 5.05,-41.31 5.27,-61.49 0.24,-21.05 -0.23,-42.73 -0.41,-63.84 43.02,-0.64 57.88,-27.28 68.93,-63.23 12.53,-40.76 1.25,-80.49 -40.98,-82.88 9.18,-168.11 -158.82,-242.64 -282.06,-160.91 -15.06,9.99 -34.58,30.54 -44.36,46.05 -23.09,36.62 -25.22,71.46 -23.08,113.83l-6.16 2.16c-0.71,0.2 -1.47,0.38 -2.23,0.57 -37.19,9.75 -44.45,34.26 -33.7,80.43 15.8,67.82 49.7,59.45 67.38,66.76 2.53,34.54 0.82,71.24 3.45,106.27 1.31,17.72 -10.11,21.32 -22.99,29.1 -12.7,7.68 -21.85,12.2 -33.07,19.14 -172.32,106.43 -326.69,63.67 -365.45,283.7 -5.48,31.04 -8.21,70.26 -6.88,102.32 1.47,35.32 -7.72,59.5 -15.22,92.03 -7.36,31.99 -9.93,64.85 -10.81,97.95 -0.68,25.15 0.12,83.16 -3.71,104.59 -4.85,27.21 -42.52,60.91 -55.94,160.12 -21.81,161.19 5.49,114.88 33.16,164.59 11,-18.1 4.14,-201.2 30.51,-233.78 17.79,43.48 48.98,71.87 37.67,134.61 -8.8,48.8 -19.83,99.56 -28.3,148.42 6.52,6.11 9.87,6.34 17.69,13.59 4.56,4.23 8.78,9.8 15.41,13.35 14.33,-44.41 35.65,-179.98 43.86,-201.81zm1046.7 -191.87c1.9,-2.95 0.84,-0.28 2.85,-6.12l6.9 -34.28c6.08,-14.79 -1.46,-7.44 10.28,-9.13 -9.74,27.85 19.88,85.44 19.76,87.17l-40.33 68.29c-0.18,-0.78 -0.41,-1.53 -0.58,-2.43l-2.13 -21.1c-6.4,-64.3 4.92,-65.56 3.25,-82.41zm7.45 -85.37c-5.04,4.41 -4.83,4.2 -8.76,11.6l-13.12 30.89c-3.91,5.63 1.38,0.63 -5.18,4.99 -0.42,-52.37 -50.99,-240.51 -49.57,-260.23 7.32,4.18 14.68,9.96 24.03,14.86 8.55,4.49 15.96,8.58 24.91,13.52 15.56,8.61 10.13,4.54 15.3,23.01 9.55,34.06 35.29,106.68 16.95,147.68 -4.97,11.13 -4.12,4.24 -4.55,13.68zm140.56 14.09c-11.95,16.29 -13.99,26.09 6.94,34.45 81.6,32.6 64.02,-15.21 46.08,-23.75 -13.27,-6.32 -38.07,-12.4 -53.02,-10.7zm-1037.03 -811.69c-20.08,9.54 -8.7,29.7 -3,46.65 4.85,14.42 13.49,35.66 32.83,28.11 20.11,-7.86 5.53,-31.55 0.08,-44.83 -5.56,-13.55 -11.18,-38.83 -29.91,-29.92zm-348.43 810.31c-15.22,3.88 -40.51,7.33 -47.9,19.07 -10.7,17 3.99,32.54 26.29,26.3 11.44,-3.19 43.03,-12.31 47.86,-18.13 11.53,-13.85 -2.7,-33.22 -26.25,-27.24zm1295.23 -600.39c-3.09,0.84 -59.67,31.12 -49.54,54.1 10.44,23.72 33.63,2.74 44.37,-6.6 9.13,-7.94 12.96,-9.3 19.67,-15.94 19.26,-19.05 1.93,-35.98 -14.49,-31.56zm-1200 3.26c-24.06,13.86 3.2,33.77 13.6,42.49 19.65,16.47 29.85,29.25 44.21,21.17 31.9,-17.93 -41.7,-72.94 -57.81,-63.66zm175.83 -55.67c0.34,-19.11 -8,-21.53 -27.48,-44.76 -3.23,-3.86 -11.27,-15.96 -17.55,-18.46 -12.64,-5.01 -21.77,2.45 -24.04,12.05 -3.35,14.25 16.94,35.37 24.14,43.07 14.31,15.33 23.25,23.06 44.93,8.1zm750.32 -83.43c26.33,5.39 31.77,-6.97 37.84,-28.05 5.35,-18.62 12.32,-40.22 -5.05,-47.89 -20.2,-8.92 -25.87,13.42 -31.27,27.52 -9.01,23.53 -13.69,30.44 -1.52,48.42zm125.87 90.2c28.12,1.66 28.24,-14.25 41.31,-27.52 6.19,-6.28 13.37,-10.07 15.55,-19.93 2.16,-9.8 -3.61,-19.99 -10.66,-22.97 -11.78,-5.01 -18.37,-0.04 -24.82,6.63 -32.34,33.43 -39.82,42.13 -21.38,63.79zm-1062.87 234.31c1.58,-26.95 -14.46,-28.26 -32.82,-38.87 -15.38,-8.88 -41.78,-20.92 -48.27,0.75 -6.07,20.28 21.55,28.3 34.62,34.61 34.95,16.87 24.75,16.84 46.46,3.5zm1290.38 -49.3c-14.2,5.17 -43.74,13.78 -51.74,23.55 -12.15,14.86 -0.07,39.16 25.57,28.24 9.18,-3.91 44.71,-20.39 49.48,-24.7 14.39,-13 5.38,-37.53 -23.31,-27.09zm-1417.67 158.65c-37.98,32.86 63.39,44.07 72.2,39.66 20.06,-10.02 10.76,-32.88 -13.33,-37.28 -15.71,-2.87 -47.36,-12.33 -58.87,-2.38zm1469.4 -5.17c-13.22,1.97 -50.28,5.66 -56.84,12.5 -13.3,13.87 0.13,34.69 24.26,32.21 93.35,-9.6 60.56,-48.9 32.59,-44.72zm-35.55 159.26c-17.08,10.18 -9.1,31.4 7.19,35.32 9.64,2.33 54.37,2.74 62.7,-0.78 17.49,-7.35 14.47,-31.59 -6.36,-35.24 -10.97,-1.93 -56.27,-3.63 -63.53,0.7zm-1445.98 36.09c17.75,1.2 101.15,5.35 75.6,-30.68 -8.29,-11.67 -48.59,-8.18 -64.52,-8.35 -32.24,-0.38 -25.82,25.63 -11.08,39.03zm970.19 -895.78c6.28,18.44 9.57,30.6 10.95,53.44l67.8 29.97c63.62,25.83 140.77,65.79 192.69,103.21 19.48,14.04 37.68,28.63 56.35,42.3 11.42,8.36 15.52,14.82 25.93,23.37 25.49,20.94 31.06,30.87 37.63,36.41 7.65,6.45 6.76,4.56 13.14,11.49l45.16 53.54c8.97,10.82 13,16.48 21.21,28.1 163.83,231.85 205.93,504.94 115.9,778.38 -31.1,94.44 -78.44,179.38 -137.97,256.6 -15.83,20.53 -28.91,34.86 -45.05,53.56 -151.93,175.95 -384.63,266.44 -617.58,271.38 -121.25,2.57 -218.58,-27.53 -327.07,-68.58 -23.09,-8.74 -47.29,-20.14 -66.75,-32.1 -10.27,-6.32 -19.71,-10.32 -31.65,-17.29 -38.4,-22.45 -81.64,-54.13 -115.81,-81.71l-75.79 -72.19c-115.71,-120.99 -195.42,-297.26 -222.56,-467.89 -37.43,-235.24 46.55,-468.02 156.04,-619.07l89.9 -107.4c14.83,-15.19 21.97,-17.95 38.77,-35.1 24.11,-24.61 104.38,-78.47 129.48,-92.52 22.99,-12.88 41.86,-21.53 65.05,-33.6 21.96,-11.43 45.69,-21.39 67.54,-31.07 11.77,-5.22 23.18,-8.71 34.79,-14.61 11.45,-5.83 20.64,-11.49 32.52,-15.17l8.63 -53.37c-24.9,3.69 -58.84,15.71 -82.52,24.52 -139.15,51.82 -256.53,125.62 -356.06,230.21 -5.22,5.48 -7.88,9.08 -12.98,14.54 -4.8,5.12 -7.74,6.94 -12.16,12.37 -79.03,96.8 -149.54,206.8 -185.66,343.37 -64.9,245.3 -44.41,473.91 75.11,695.6 20.59,38.2 57.9,94.82 83.6,127.33 72.91,92.25 126.85,137.48 221.79,202.87 19.46,13.41 45.57,29.1 66.87,40.05l71.05 32.82c102.53,45.5 223.67,73.4 350.61,73.12 160.71,-0.37 362.88,-59.71 490.13,-147.28 24.18,-16.65 42.41,-28.32 62.89,-43.8 33.51,-25.34 32.76,-29.49 55.22,-48.81 10.12,-8.71 19.15,-17.03 27.66,-27.16 8.76,-10.44 17.06,-16.21 25.58,-26.5 16.04,-19.37 31.83,-37.27 47.9,-58.82 68.01,-91.16 109.97,-168.51 146.51,-275.53 94.24,-275.93 35.28,-605.37 -135.89,-830.66 -75.86,-99.84 -124.3,-137.63 -217.82,-206.87 -58.17,-43.06 -221.87,-124.79 -291.07,-131.43zm55.29 1281.54c9.86,116.98 58.46,273.91 -86.64,340.03 -120.32,54.84 -222.29,-87.07 -105.64,-223.41 23.67,-27.66 46.61,-47.8 84.57,-68.94 23.88,-13.31 78.66,-43.29 107.71,-47.68zm-247.16 124.85c3.02,-16.62 38.47,-73.08 48.42,-85.92 40.76,-52.58 112.3,-127.13 150.92,-177.84 10.25,-13.44 18.53,-24.06 30.63,-34.86 -4.72,51.53 -3.04,84.66 3.88,135.02 -44,7.39 -127.8,57.73 -163.86,85.59 -37.06,28.63 -44.82,47.57 -69.99,78.01zm-56.41 -1.56c-7.47,-8.47 -18.39,-31.34 -37.77,-49.63 -77.81,-73.43 -172.82,-101.63 -190.3,-113.32 7.15,-50.36 4.51,-80.94 5.45,-130.47l59.68 73.08c31.74,37.83 168.12,181.36 171.63,228.03l-8.69 -7.68zm-503.73 -211.58c-4.42,-8.39 -33.25,-58.35 -34.59,-67.04 -1.41,-9.15 8.08,-25.77 10.81,-38.04 3.67,-16.4 2.74,-30.02 3.02,-47.18l4.02 10.54c4.34,14.67 8.38,24.05 18.3,36.51 5.46,6.85 5.61,4.67 10.02,11.35 0.95,2.69 -2.47,84.41 -11.58,93.85zm515.48 144.02c-7.5,-3.08 -12.3,-12.58 -17.64,-19.43 -36.43,-46.72 -84.62,-98.1 -116.39,-138.52l-98.36 -120.78c-8.72,-10.68 -20.1,-13.04 -24.83,-48.45l77.61 72.32c42.64,37.63 107.72,101.66 147.27,143.27 21.21,22.32 32.23,21.54 31.99,40.67 -0.3,24.13 -0.05,46.82 0.34,70.91zm37.45 -8.4c0.57,-11.15 0.52,-63.6 2.77,-69.49 7.49,-19.6 156,-157.73 181.16,-180.5 14.26,-12.9 60.71,-65.52 74.57,-68.79 -7.46,36.33 -29.68,43.41 -59.07,84.29 -20.63,28.68 -42.83,54.44 -64.86,80.36 -22.08,25.96 -45.02,50.38 -67.15,78.18l-35.23 38.59c-4.6,5.72 -10.74,13.95 -15.22,20.42 -3.33,4.81 -3.09,6.12 -8,11.4 -4.97,5.35 -0.36,4.21 -8.97,5.54zm466.77 -214.99c8.82,15.83 10.12,41.51 11.11,62.14 -13.16,-7.67 -23.62,-24.46 -37.75,-38.23 -18.55,-18.06 -16.64,-18.53 -25.24,-48.92 -9.7,-34.25 -31.22,-82.09 -35.41,-116.77l8.45 12.41c2.45,4.12 4.81,8.5 6.85,12.14 4.87,8.66 9.93,16.87 14.16,24.36l42.43 69.79c4.94,7.46 10.39,14.11 15.4,23.09zm-974.64 62.67c5.47,-72.99 28.21,-85.49 68.74,-150.74 4.59,-7.39 8.65,-13.97 13.52,-22.12l13.46 -23.32c-4.74,39.19 -22.91,78.76 -30.46,115.99 -3.15,15.58 -0.33,19.73 -10.51,27.74 -8.87,6.98 -11.46,9.19 -18.95,16.64 -11.51,11.44 -24.54,31.04 -35.8,35.81zm508.98 -38.78c27.53,-20.39 43.69,-38.07 67.93,-58.61 17.8,-15.08 192.36,-151.77 213.86,-162.24 -0.56,5.79 -5.6,23.23 -8.27,28.04 -4.34,7.83 -11.53,10.49 -19.21,16.44l-220.54 212.25c-9.55,10.56 -21.58,27.82 -35.04,35.65l1.27 -71.53zm-39.45 72.59c-11.48,-9.06 -25.19,-25.27 -35.3,-35.65l-184.8 -176.88c-15.7,-14 -21.84,-23.72 -35.99,-37.96 -16.39,-16.49 -16.24,-3.33 -28.16,-44.33 8.58,3.37 58.61,44.75 73.99,56.01 26.3,19.24 46.88,35.28 71.28,54.78l139.47 113.13 -0.49 70.9zm463.38 -232.88c-14.58,-26.09 -78.89,-112 -72.55,-142.99 6.6,-32.19 5.64,-68.08 11.43,-99.38 55.27,29.51 42.98,26.71 48.58,54.69 9.29,46.38 53.87,222.9 54.59,257.88l-42.04 -70.2zm-919.04 66.72c1.64,-40.46 22.61,-124.63 32.44,-167.26 4.02,-17.48 18.01,-111.76 29.9,-120.51l30.93 -19.84c4.37,29.71 9.76,66.1 15.69,94.91 4.48,21.84 -0.43,20.72 -8.51,39.88l-36.84 72.66c-8.02,12.95 -14.06,20.11 -21.23,33.54 -7.96,14.9 -33.35,57.12 -42.38,66.63zm495.35 3.16c15.46,-12.32 16.44,-20.64 29.5,-36.58 11.89,-14.53 22.03,-18.27 36.63,-29.19 24.28,-18.15 49.92,-34.41 76.73,-52.05l119.49 -74.99c11.86,-7.12 27.79,-19.52 39.93,-23.54 -4.15,30.88 -5.36,30.03 -17.9,37.35l-48.96 38.74c-27.02,20.91 -53.92,39.88 -81.22,61.32 -27.93,21.92 -54.44,40.98 -80.16,62.26 -12.47,10.31 -66.19,59.28 -75.47,62.02l1.42 -45.34zm-38.63 49.1c-9.97,-4.83 -135.56,-111.38 -156.65,-127.47 -26.47,-20.2 -54.22,-41 -81.01,-61.42 -48.1,-36.67 -61.02,-37.21 -66.46,-73.43 35.7,15.92 181.99,112.11 217.49,138.84 13.14,9.9 28.88,20.42 41.03,30.17 15.39,12.36 24.66,28.51 34.01,37.37 15.4,14.59 11.16,12.75 11.59,55.94zm-511.47 -282.24c19.88,-4.65 52.15,-25.65 67.19,-34.39 0.16,13.46 -32.62,161.19 -39.58,205.18 -3.96,25.04 -9.95,42.4 -14.23,65.2 -10.2,-13.7 -13.54,-34.98 -20.52,-53.51 -9.56,-25.39 -16.6,-23.92 -14.42,-58.9 2.56,-41.27 17.42,-81.06 21.56,-123.58zm446.18 131.97c-35.95,-30.09 -158.06,-104.69 -203.5,-133.52 -43.27,-27.44 -40.48,-15.83 -44.74,-37.42 -1.82,-9.19 -3.36,-14.79 -3.39,-23.48l147.13 76.97c38.56,18.96 55.63,18.57 68.55,43.78 8.77,17.12 32.1,57.82 35.96,73.68zm162.25 1.51c1.13,-9.45 33.94,-58.59 41.45,-74.74 16.41,-35.27 5.67,-14.59 67.88,-47.36 23.12,-12.17 137.28,-75.41 152.77,-76.96l-8.05 38.44c-22.11,13.65 -22.08,7.78 -66.05,37.74l-127.36 80.95c-19.87,12.26 -41.12,32.33 -60.64,41.93zm-413.46 -242.29c38.81,-25.1 60.4,-39.07 91.25,-72.36 18.18,8.48 79.42,150.18 90.76,169.57 -16.45,-0.76 -172.6,-86.2 -182.01,-97.22zm491.86 93.8c12.15,-29.52 68.45,-145.15 85.53,-166.14 15.2,8.19 30.04,27.31 44.74,38.02 13.02,9.48 44.13,27.64 49.27,34.81 -12.25,3.81 -147.77,84.16 -179.54,93.32zm374.95 -32.43c-30.88,-5.38 -182.53,-101.76 -229.59,-138.23 -52.67,-40.84 -40.62,-38.9 -0.55,-50.89 32.87,-9.85 63.18,-18.66 97.15,-26.15 20.18,-4.45 34.02,-13.78 48.88,-2.71 36.94,27.53 60.11,58.84 72.98,111.1 8.4,34.13 9.31,69.87 11.12,106.89zm-1059.33 1.1c5.36,-82.34 7.01,-145.19 67.11,-204.12 23.94,-23.48 25.93,-20.98 44.26,-17.17l109.6 27.67c21.75,6.33 34.39,3.1 41.05,23.76 -8.45,6.28 -20.75,19 -27.68,26.14 -32.96,33.95 -190.03,127.29 -234.34,143.73zm546.09 191.41c0.37,-6.11 1.08,-12.46 1.43,-18.74l1.45 -106.91c-0.21,-16.96 -2.35,-139.16 -0.57,-144.62 4.97,-15.16 69.6,-47.68 89.46,-55.97 28.78,-12 78.19,-31.11 107.29,-38.31 -5.65,11.17 -37.89,55.86 -54.85,90.66 -15.13,31.07 -31.4,64.04 -47.1,95.63l-95.25 192.41 -1.87 -14.14zm-36.83 26.91c-7.7,-5.98 -60.79,-125.11 -73.5,-149.92 -8.27,-16.11 -15.79,-31.89 -23.97,-49.99 -7.31,-16.17 -16.59,-33.64 -23.86,-50.1 -7.21,-16.35 -15.96,-34.3 -24.45,-49.64l-52.79 -92.8c11.93,0.81 87.24,31.87 104.08,38.77 23.09,9.46 80.64,40.12 93.68,53.18 -0.86,97.33 -2.28,202.82 0.82,300.5zm36.87 -349.7c9.86,-66.2 -1.76,-163.3 1.4,-233.76l4.24 4.92c44.21,54.78 60.78,80.58 131.62,115.08 14.25,6.94 48.57,17.69 57.31,25.95l-4.14 1.9c-12.41,5.06 5.79,-1.99 -4.2,1.64l-95.72 35.81 -90.51 48.46zm-230.93 -84.86c3.6,-11.41 33.07,-18.21 56.03,-29.03 98.98,-46.64 122.43,-108.03 136.82,-120.3l-0.76 233.97c-12.37,-4.96 -31.25,-18.2 -45.38,-26.12 -25.56,-14.34 -121.94,-52.64 -146.71,-58.52zm-152.77 -40.71c9.4,-5.31 42.85,-14.17 57.16,-19.48 18.06,-6.73 35.81,-14.97 53.8,-22.9 86.93,-38.28 169.27,-83.45 210.02,-173.31l21.81 -51.83c4.15,16.52 3.07,86.33 -0.12,102.94 -4.63,13.46 -0.26,-8.36 -16.88,13.61 -10.35,13.66 -16.11,32.43 -41.7,62.62 -53.6,63.2 -108.83,73.01 -175.11,104.42 -28.17,13.34 -108.81,-15.93 -108.98,-16.06zm732.29 0.39c-21.09,7.92 -42.01,11.54 -65.02,14.58 -41.29,5.45 -36.6,2.58 -70.98,-9.92 -41.1,-14.94 -74.81,-32.12 -107.93,-53.62 -29.14,-18.91 -56.87,-51.09 -76.64,-87.78 -9.12,-16.92 -25.01,-37.91 -25.69,-55.87 -0.42,-11.32 -2.19,-69.99 2.82,-76.14 36.74,47.72 10.18,128.55 231.98,226.92 36.75,16.3 94.11,33.47 111.46,41.82zm-303.28 -280.46c30.73,-14.34 31.99,-23.39 43.37,-28.58l-2.24 113.56c-13.26,-7.74 -37.78,-68.6 -41.13,-84.98zm-166.8 -26.65c25.47,18.63 3.68,8.42 40.52,24.21 -2.3,20.29 -26.12,76.41 -36.41,85.31l-4.11 -109.52zm-47.99 -45.92c4.36,12.14 9.77,19.86 4.19,33.71 -15.76,-4.04 -24.6,-34.6 -23.88,-55.95 15.78,-1.97 9.49,-6.27 19.69,22.24zm298.21 28.26c-2.31,-14.81 10.8,-45.38 18.32,-54.36l14.99 -0.05c-2.83,19.22 -11.12,54.16 -33.32,54.42zm-162.93 -244.87c75.53,-12.79 138.42,44.13 145.89,108.2 9.09,77.82 -45.62,140.61 -107.84,149.89 -170.5,25.42 -210.93,-228.85 -38.05,-258.09z"/>
  <g id="_2129402671152">
   <path class="fil1" d="M2482.15 346.71l-301.46 0 0 -0.12 -184.77 0 0 294.98 184.77 0 0 -202.48 71.31 0 -47.12 95.75 92.27 0c-1.73,62.86 -53.14,113.33 -116.46,113.33l-184.77 0 0 184.77 184.77 0c166.47,0 301.46,-134.99 301.46,-301.35l-90.76 0 90.76 -184.88zm197.74 301.11c-2.32,0.35 -4.4,0.35 -6.72,0.35l-184.77 0 0 184.77 184.77 0c83.35,0 158.61,-33.8 213.25,-88.33 53.13,-53.14 86.36,-126.07 87.98,-206.53l-185 0c-3.25,59.15 -50.36,106.51 -109.52,109.75l0 0zm109.86 -301c-83.25,0 -158.61,33.81 -213.02,88.34 -53.13,53.14 -86.59,125.84 -88.1,206.3 0.12,0 184.77,0 184.89,0 3.24,-59.15 50.59,-106.27 109.75,-109.52 2.2,-0.35 4.4,-0.35 6.6,-0.35l184.66 0 0 -184.77 -184.77 0zm208.5 -0.11c0,0 0,117.97 0,263.37l0 44.69 184.77 0 0 -123.29c0,0 52.21,0 116.69,0l0 22.11c0,59.62 -52.21,108.01 -116.69,108.01l-184.77 0 0 171.34 184.77 0c158.26,0 287.68,-112.99 300.19,-256.66 0.69,-126.65 -101.65,-229.57 -228.3,-229.57l-256.66 0zm796.72 0c0,166.47 -134.99,301.46 -301.46,301.46l0 184.77c268.58,0 486.23,-217.65 486.23,-486.23l-184.77 0zm-62.4 172.27c-34.15,-48.86 -54.3,-108.25 -54.3,-172.27l-184.76 0c0,104.77 33.11,201.67 89.61,280.85 60.66,-19.34 112.99,-57.88 149.45,-108.59l0 0z"/>
   <path class="fil1" d="M2427.31 1260.34l0 294.63 184.77 0 0 -229.45c-50.59,-40.76 -114.85,-65.19 -184.54,-65.19l-0.23 0zm787.69 -191.48c-161.95,0 -305.39,79.3 -393.73,201.2 -88.45,-121.9 -231.89,-201.2 -393.84,-201.2l0 184.77c166.47,0 301.34,134.99 301.34,301.46l184.89 0c0,-166.47 134.87,-301.46 301.34,-301.46l0 -184.77zm0 191.48c-69.69,0 -133.94,24.43 -184.65,65.19l0 229.45 184.77 0 0 -294.63 -0.12 0zm375.32 65.19l0 44.8 -44.69 0c-40.87,50.47 -65.29,114.85 -65.29,184.77l294.87 0 0 -294.86c-69.93,0 -134.18,24.54 -184.89,65.29zm-301.35 229.57l184.77 0c0,-166.47 134.99,-301.46 301.47,-301.46l0 -184.77c-268.59,0 -486.24,217.64 -486.24,486.23zm1061.49 -486.23l-480.44 0 0 92.38 0 0 0 103.39c0,0 184.08,0 184.88,-0.12l0 -57.77 113.92 0c-3.12,59.15 -50.36,61.01 -109.4,64.14 -2.32,0.35 -4.4,0.35 -6.72,0.35l-182.68 0 0 184.88 182.68 0c83.25,0 158.61,-33.8 213.13,-88.33 53.14,-53.26 86.37,-126.07 87.99,-206.53l-3.36 -92.38zm-295.56 486.23l0 -92.38 -184.88 0 0 92.38 184.88 0z"/>
  </g>
 </g>
</svg>
